<svg version="1.2" baseProfile="tiny-ps" xmlns="http://www.w3.org/2000/svg" viewBox="0 0 64 64" width="64" height="64"><title>chalice-logo-whitespace</title><style>tspan { white-space:pre }.shp0 { fill: #2bba9c } </style><g ><path fill-rule="evenodd" class="shp0" d="M6.48 2L56.28 2C56.28 2 57 1.89 57 3.19C57 4.5 57.53 21.55 37.22 27.98C36.27 28.28 36.19 29.53 35.08 35.6C35.06 35.66 39.03 37.81 38.65 41.88C38.61 42.32 38.38 42.51 37.46 42.51C36.54 42.51 35.31 42.51 35.31 42.51C35.31 42.51 35.75 53.34 47.51 59.06C47.99 59.29 48.66 59.57 48.66 60.15C48.66 60.73 48.9 61.1 47.23 61.1C45.55 61.1 15.06 61.1 15.06 61.1C15.06 61.1 14.1 60.94 14.1 60.39C14.1 59.83 14.03 59.81 15.3 59.19C16.57 58.58 26.46 54.23 27.69 42.51C27.69 42.51 24.83 42.51 24.83 42.51C24.83 42.51 24.35 42.71 24.35 41.56C24.35 40.41 24.29 38.72 27.69 35.6C27.7 35.59 27.06 28.24 25.54 27.98C24.02 27.71 7.29 23.69 6 3.19C5.98 2.82 6.1 2 6.48 2ZM55.21 3.7L7.43 3.67C7.43 3.67 8.75 26.52 31.74 26.79C46.04 26.95 55.97 13.42 55.21 3.7ZM29.36 35.13C29.52 36.41 29.05 36.67 28.88 36.79C25.84 39.01 26.02 40.85 26.02 40.85C26.02 40.85 27.94 40.85 28.4 40.85C28.87 40.85 29.43 41.09 29.36 41.72C27.72 56.22 18.16 59.43 18.16 59.43C18.16 59.43 44.62 59.44 44.61 59.43C33.55 52.86 33.7 42.77 33.65 41.8C33.59 40.82 34.36 40.85 34.36 40.85C34.36 40.85 36.98 40.87 36.98 40.85C36.7 38.36 34.74 37.35 33.88 36.56C33.03 35.76 34.84 28.45 34.84 28.45L28.16 28.45C28.91 30.54 29.19 33.85 29.36 35.13Z" /><path class="shp0" d="M27.93 7.24L31.26 7.24L35.55 17.49L36.98 16.78L37.7 18.68L33.88 19.87L31.5 13.92L27.93 19.16L25.3 19.16L30.55 11.3L29.83 9.15L27.93 9.15L27.93 7.24Z" /><path class="shp0" d="M19.59 20.87C19.59 20.87 20.1 19.72 21.27 20.84C21.8 21.35 22.93 21.14 22.51 22.17C22.13 23.11 20.86 22.4 20.52 22.17C20.18 21.95 19.19 21.56 19.59 20.87Z" /><path class="shp0" d="M10.29 5.34C10.73 5.32 11.19 5.28 11.48 7.24C11.78 9.21 12.99 12.7 15.77 16.06C18.55 19.42 19.32 18.84 19.05 19.74C18.81 20.52 17.99 20.65 17.38 20.22C16.77 19.79 11.75 15.36 10.05 8.91C9.71 7.62 9.18 5.4 10.29 5.34Z" /></g></svg>