<svg version="1.2" baseProfile="tiny-ps" xmlns="http://www.w3.org/2000/svg" viewBox="0 0 64 64" width="64" height="64"><title>bootstrapvue</title><style>tspan { white-space:pre }.shp0 { fill: #304a59 } .shp1 { fill: #ffffff } .shp2 { fill: #5a3a7b } .shp3 { fill: #43b584 } </style><path class="shp0" d="M4.88 8.68L15.79 8.68L32.16 36.99L48.52 8.68L59.43 8.68L32.16 55.86L4.88 8.68Z" /><g ><path class="shp1" d="M56.92 2.57L6.76 2.57L31.84 45.82L56.92 2.57Z" /><path fill-rule="evenodd" class="shp2" d="M31.85 48.84L4.25 1L59.59 1L31.85 48.84ZM24.79 6.64L24.79 26.39C24.79 26.39 32.75 26.39 34.66 26.39C36.58 26.39 41.25 25.29 41.25 20.75C41.25 16.22 37.49 15.74 37.49 15.74C37.49 15.74 40.31 14.85 40.31 11.35C40.31 7.84 37.28 6.64 34.98 6.64C32.68 6.64 24.79 6.64 24.79 6.64Z" /><path class="shp2" d="M28.24 9.31L28.24 14.95C28.24 14.95 33.2 14.95 34.19 14.95C35.19 14.95 36.86 14.15 36.86 12.13C36.86 10.11 35.37 9.31 34.04 9.31C32.71 9.31 28.24 9.31 28.24 9.31Z" /><path class="shp2" d="M28.24 17.31L28.24 23.57C28.24 23.57 33.74 23.57 34.84 23.57C35.95 23.57 37.8 22.68 37.8 20.44C37.8 18.2 36.15 17.31 34.67 17.31C33.19 17.31 28.24 17.31 28.24 17.31Z" /></g><path class="shp3" d="M3 12.13L14.6 12.13L32 42.23L49.4 12.13L61 12.13L32 62.29L3 12.13Z" /></svg>