<svg version="1.2" baseProfile="tiny-ps" xmlns="http://www.w3.org/2000/svg" viewBox="0 0 48 48" width="48" height="48"><title>css-svg</title><style>tspan { white-space:pre }.shp0 { fill: #0277bd } .shp1 { fill: #039be5 } .shp2 { fill: #ffffff } .shp3 { fill: #eeeeee } </style><path class="shp0" d="M44 2L4 2L7.53 42L24 46.71L40.47 42L44 2L44 2Z" /><path class="shp1" d="M24 5.53L24 43.06L37.18 39.29L40.12 5.53L24 5.53Z" /><path class="shp2" d="M34.71 11.41L24 11.41L24 16.12L29.76 16.12L29.41 20.82L24 20.82L24 25.53L29.18 25.53L28.82 30.82L24 32.47L24 37.41L33.29 34.35L34.12 20.82L34.12 20.82L34.71 11.41Z" /><path fill-rule="evenodd" class="shp3" d="M13.18 11.41L13.53 16.12L24 16.12L24 11.41L13.18 11.41ZM18.59 20.82L18.82 25.53L24 25.53L24 20.82L18.59 20.82ZM19.06 27.88L14.35 27.88L14.71 34.35L24 37.41L24 32.47L19.18 30.82L19.06 27.88Z" /></svg>