<svg version="1.2" baseProfile="tiny-ps" xmlns="http://www.w3.org/2000/svg" viewBox="0 0 774 474" width="774" height="474"><title>express-svg</title><style>tspan { white-space:pre }.shp0 { fill: #ffffff } .shp1 { fill: #000000 } </style><path class="shp0" d="M0 20C0 8.95 8.95 0 20 0L754 0C765.05 0 774 8.95 774 20L774 454C774 465.05 765.05 474 754 474L20 474C8.95 474 0 465.05 0 454L0 20Z" /><path fill-rule="evenodd" class="shp1" d="M749 436.53C722.7 443.22 706.43 436.83 691.84 414.91L588.04 271.3L573.04 251.42L451.82 415.38C437.97 435.11 423.45 443.69 397.6 436.71L552.82 228.35L408.31 40.15C433.16 35.31 450.33 37.77 465.58 60.03L573.24 205.42L681.69 60.82C695.59 41.1 710.52 33.59 735.47 40.87L679.43 115.16L603.52 214.01C594.48 225.3 595.72 233.03 604.04 243.94L749 436.53ZM26.18 224.87L38.88 162.42C73.45 38.84 215.11 -12.52 312.81 63.85C369.9 108.76 384.09 172.3 381.26 243.47L59.44 243.47C54.6 371.57 146.81 448.89 264.36 409.44C305.6 395.59 329.89 363.31 342.04 322.91C348.21 302.66 358.42 299.5 377.45 305.28C367.73 355.8 345.81 398.01 299.5 424.42C230.29 463.96 131.51 451.17 79.55 396.22C48.59 364.34 35.81 323.95 30.07 280.75C29.16 273.61 27.36 266.81 26 259.96C26.12 248.27 26.18 236.58 26.18 224.9L26.18 224.87ZM350.85 216.29C348.96 123.65 291.27 57.86 212.44 57.3C125.91 56.62 63.78 120.85 60.03 216.29L350.85 216.29Z" /></svg>