<svg version="1.2" baseProfile="tiny-ps" xmlns="http://www.w3.org/2000/svg" viewBox="0 0 750 750" width="750" height="750"><title>Layer</title><style>tspan { white-space:pre }.shp0 { fill: #000000; stroke: #ffffff; stroke-width: 20; } </style><path fill-rule="evenodd" class="shp0" d="M525.41 146.22L525.41 146.22L525.42 146.23L525.42 146.25C525.43 146.27 525.43 146.3 525.44 146.33C525.46 146.39 525.49 146.48 525.51 146.6C525.58 146.83 525.66 147.16 525.75 147.59C525.94 148.45 526.17 149.71 526.38 151.32C526.79 154.53 527.09 159.15 526.63 164.86C525.77 175.44 522.33 189.7 512.31 205.58L729.74 147.77L731.41 147.32L731.87 148.99L732.85 152.59L733 153.14L732.8 153.67L710.49 211.83L710.17 212.67L709.31 212.89L499.26 268.75L499.38 321.22L684.48 271.99L687.77 271.12L686.55 274.3L662.61 336.76L662.29 337.59L661.43 337.82L499.47 380.89L499.59 433.33L636.54 396.92L639.84 396.05L638.62 399.23L614.67 461.69L614.36 462.52L613.49 462.75L431.06 511.26C401.09 524.32 368.72 544.6 340.39 563.02C335.93 565.91 331.58 568.76 327.36 571.53C318.13 577.56 309.51 583.2 301.76 588.07C290.49 595.16 280.94 600.7 274.02 603.43C266.05 606.58 257 606.8 248.02 605.45C239.04 604.1 230.02 601.17 222 597.88C213.98 594.58 206.93 590.92 201.88 588.08C199.35 586.65 197.33 585.44 195.93 584.57C195.23 584.14 194.69 583.79 194.32 583.56C194.27 583.53 194.23 583.5 194.18 583.47L193.67 583.71L193.17 582.8L191.65 581.79L192.36 581.28C192.36 581.28 192.35 581.27 192.35 581.26C192.02 580.62 191.54 579.7 190.97 578.54C189.84 576.23 188.33 573 186.81 569.31C183.81 562.01 180.69 552.66 180.67 545.14L180.66 541.82L183.39 543.7L183.4 543.7L183.41 543.71L183.42 543.71L183.45 543.74C183.49 543.76 183.56 543.81 183.64 543.86C183.8 543.97 184.05 544.14 184.38 544.34C185.02 544.76 185.97 545.36 187.17 546.09C189.56 547.53 192.93 549.45 196.86 551.35C204.6 555.11 214.26 558.69 222.71 558.66C223.19 558.29 223.68 557.92 224.17 557.55C224.97 556.95 225.77 556.35 226.58 555.73L226.77 541.66L226.79 539.95L247.08 539.9C247.34 539.69 247.61 539.48 247.88 539.28C247.88 539.27 247.88 539.27 247.89 539.27L248.1 524.82L248.12 523.1L268.07 523.06C277.26 515.41 284.35 509.04 287.3 505.38C290.02 502 291.35 496.12 290.87 488.68C290.4 481.31 288.15 472.69 284.08 464.12C275.94 446.99 260.61 430.33 237.98 424.29C229.4 421.99 219.82 422.59 209.64 425.17L207.27 425.77L207.48 423.34C209.63 397.83 212.06 383.93 215.65 374.47C218.87 365.95 223.03 361.07 228.39 354.76C229.04 353.99 229.71 353.21 230.39 352.4L230.68 352.05L231.1 351.89L248.37 345.3L248.42 345.28L248.47 345.27L248.47 345.27L248.47 345.27L248.49 345.26C248.5 345.26 248.51 345.25 248.53 345.25L248.56 345.24C248.63 345.21 248.74 345.18 248.89 345.13C249.17 345.03 249.61 344.87 250.18 344.65C251.31 344.2 252.97 343.51 255.03 342.5C259.16 340.49 264.91 337.24 271.35 332.32C284.21 322.48 299.82 305.93 310.65 279.13C310.65 279.13 310.65 279.13 310.65 279.12L317.15 262.67L213.83 333.5L187.92 432.39L187.72 433.18L186.97 433.52C184.18 434.81 181.4 436.2 178.58 437.65L181.59 458.37L182.01 461.26L179.27 460.26L156.4 451.92L158.99 473.49L159.32 476.31L156.66 475.34L131.73 466.24C130.1 467.31 128.49 468.36 126.9 469.39C131.69 476.82 136.84 483.75 140.88 488.93C143.03 491.68 144.87 493.93 146.16 495.5C146.81 496.28 147.32 496.89 147.67 497.3C147.85 497.51 147.98 497.66 148.07 497.77C148.11 497.82 148.15 497.86 148.17 497.89L148.19 497.92L148.2 497.92L148.2 497.93L148.2 497.93L151.07 501.25L146.71 500.8C128.8 498.96 112.59 492.32 100.09 485.49C96.51 487.27 93.19 488.67 90.17 489.56L90.17 489.56L90.16 489.56C81.91 491.95 73.7 490.51 66.12 487.15C58.55 483.79 51.53 478.47 45.56 472.94C39.58 467.4 34.59 461.59 31.1 457.17C29.36 454.96 27.98 453.09 27.04 451.77C26.57 451.11 26.21 450.59 25.96 450.23C25.84 450.05 25.75 449.91 25.68 449.81C25.65 449.76 25.63 449.73 25.61 449.7L25.59 449.67L25.58 449.67L25.58 449.66C25.58 449.66 25.58 449.66 26.01 449.39L26.01 449.38L25.58 449.66L25.39 449.37L25.33 449.03L25.26 448.66L24.28 443.51L28.14 447.05C28.29 447.18 28.43 447.31 28.56 447.43C47.57 421.75 61.62 404.57 70.97 393.76C74.91 389.21 78.01 385.78 80.3 383.33L19.59 402.81L17.66 403.43L17.34 401.44L17.17 400.44L17 399.4L17.84 398.77L17.84 398.77L17.85 398.76L17.89 398.73L18.05 398.61L18.68 398.13C19.24 397.71 20.05 397.1 21.09 396.31C23.18 394.73 26.19 392.46 29.87 389.68C37.24 384.11 47.32 376.51 58.14 368.37C79.76 352.1 104.38 333.64 116.29 324.97C121.93 320.85 127.67 312.87 134.5 302.41C136 300.11 137.55 297.7 139.16 295.19C144.78 286.45 151.11 276.62 158.52 266.63C177.64 240.89 204.21 213.85 245.76 200.51C286.96 187.26 312.02 184.18 333.55 184.58C343.7 184.77 353.04 185.73 362.84 186.75C363.41 186.8 363.98 186.86 364.55 186.92C374.99 187.99 386.06 189.08 399.39 189.34C425.77 189.87 456.57 178.92 480.92 167.72C493.07 162.13 503.54 156.51 510.99 152.28C514.71 150.17 517.66 148.41 519.69 147.18C520.7 146.56 521.49 146.08 522.01 145.75C522.27 145.58 522.47 145.46 522.61 145.38C522.67 145.33 522.72 145.3 522.75 145.28L522.79 145.26L522.8 145.25L522.8 145.25C522.8 145.25 522.8 145.25 523.74 146.72C525.41 146.22 525.41 146.22 525.41 146.22ZM523.74 146.72L522.8 145.25L524.75 144L525.41 146.22L523.74 146.72ZM366.02 365.85L406.76 355.01L419.65 321.39L378.91 332.23L366.02 365.85ZM363.58 381.45L350.69 415.1L391.42 404.26L404.31 370.62L363.58 381.45ZM422.08 368.75L409.19 402.4L449.93 391.56L462.81 357.92L422.08 368.75ZM522.07 147.21C522.07 147.21 522.07 147.21 522.07 147.21L522.07 147.21Z" /></svg>