<svg version="1.2" baseProfile="tiny-ps" xmlns="http://www.w3.org/2000/svg" viewBox="0 0 283 283" width="283" height="283"><title>jest-svg</title><style>tspan { white-space:pre }.shp0 { fill: #c63d14 } .shp1 { fill: #ffffff } </style><path fill-rule="evenodd" class="shp0" d="M252.58 143.76C252.32 145.26 251.92 146.74 251.4 148.18C250.88 149.61 250.24 151 249.47 152.32C248.71 153.65 247.83 154.9 246.85 156.07C254.24 166.31 257.45 178.94 255.25 191.63C253.02 204.47 245.16 215.91 233.24 222.81C217.37 232 197.6 231.29 179.59 235.73C129.89 247.98 82.76 296.74 39.33 266.64C20.69 253.72 17.12 230.84 20.7 209.28C23.68 191.29 33.26 175.77 39.77 160.94C32.99 156.18 28.56 148.31 28.56 139.39C28.56 124.86 40.34 113.08 54.87 113.08C69.41 113.08 81.19 124.86 81.19 139.39C81.19 151.86 72.52 162.3 60.88 165.01C60.12 166.85 59.33 168.69 58.56 170.51C51.71 186.6 59.3 204.96 75.37 213.21C88.86 208.41 101.34 200.61 112.24 190.32C120.26 182.76 127.32 174 132.94 164.28C122.31 160.9 114.61 150.95 114.61 139.2C114.61 124.67 126.39 112.89 140.93 112.89C141.06 112.89 141.19 112.89 141.33 112.89C141.46 112.89 141.59 112.9 141.73 112.9C141.86 112.91 141.99 112.91 142.13 112.92C142.26 112.92 142.39 112.93 142.53 112.94L106.43 6.43L260.04 6.43L223.89 113.03C224.8 112.94 225.72 112.89 226.66 112.89C241.19 112.89 252.97 124.67 252.97 139.2C252.98 140.73 252.84 142.25 252.58 143.76ZM167.24 139.3L200.35 139.78C200.35 139.58 200.34 139.4 200.34 139.2C200.34 130.07 205 122.02 212.06 117.3L183.29 58.6L154.56 116.69C162.16 121.3 167.24 129.66 167.24 139.2L167.24 139.3Z" /><path fill-rule="evenodd" class="shp1" d="M259.4 139.2C259.4 140.7 259.3 142.19 259.1 143.67C258.89 145.15 258.59 146.62 258.18 148.06C257.78 149.5 257.27 150.91 256.67 152.28C256.08 153.65 255.38 154.97 254.6 156.25C261.12 167.12 263.8 179.93 261.58 192.73C258.99 207.64 249.84 220.63 236.46 228.37C224.93 235.05 211.9 236.93 199.31 238.75C192.96 239.67 186.96 240.53 181.13 241.97C165.46 245.83 149.6 253.71 134.26 261.33C112.96 271.91 91.18 282.73 69.65 282.73C58.22 282.73 46.86 279.68 35.67 271.92C17.23 259.15 9.66 236.52 14.36 208.22C16.72 193.98 22.97 181.14 28.48 169.82C28.77 169.23 29.06 168.64 29.34 168.05C29.63 167.45 29.92 166.86 30.2 166.27C30.49 165.67 30.77 165.08 31.06 164.48C31.34 163.89 31.62 163.29 31.9 162.7C25.87 156.76 22.13 148.5 22.13 139.39C22.13 121.34 36.82 106.65 54.87 106.65C72.93 106.65 87.62 121.34 87.62 139.39C87.62 153.68 78.41 165.86 65.62 170.31L64.87 172.08L64.47 173.02C59.36 185.04 64.28 198.83 75.93 206.14C87.49 201.61 98.21 194.73 107.83 185.65C113.9 179.92 119.2 173.66 123.66 167.01C114.38 161.22 108.18 150.93 108.18 139.2C108.18 123.59 119.17 110.51 133.81 107.25L97.47 0L269 0L232.71 107.03C247.88 109.88 259.4 123.22 259.4 139.2ZM248.91 190.53C250.38 182.09 249.01 173.61 245.33 166.08C243.97 167.03 242.54 167.87 241.05 168.6C239.56 169.34 238.02 169.95 236.44 170.45C234.86 170.95 233.24 171.32 231.61 171.57C229.97 171.82 228.31 171.95 226.66 171.95C208.6 171.95 193.91 157.26 193.91 139.2C193.91 129.91 197.81 121.52 204.05 115.55L183.26 73.15L162.68 114.76C169.42 120.76 173.67 129.49 173.67 139.2C173.67 157.26 158.98 171.95 140.93 171.95C140.52 171.95 140.11 171.94 139.7 171.92C139.29 171.91 138.88 171.89 138.47 171.85C138.06 171.82 137.65 171.79 137.24 171.74C136.84 171.69 136.43 171.64 136.02 171.58C130.69 180 124.2 187.88 116.65 195C104.98 206.01 91.81 214.18 77.52 219.27L74.9 220.2L72.43 218.93C54.36 209.65 45.75 190 51.22 171.93C50.5 171.85 49.77 171.74 49.06 171.61C48.34 171.48 47.62 171.33 46.92 171.15C46.21 170.97 45.51 170.77 44.81 170.55C44.12 170.32 43.44 170.07 42.76 169.8C42.53 170.27 42.31 170.75 42.08 171.22C41.86 171.69 41.63 172.16 41.4 172.63C41.18 173.1 40.95 173.57 40.72 174.04C40.49 174.51 40.26 174.98 40.04 175.45C34.66 186.5 29.1 197.92 27.04 210.33C24.82 223.72 23.94 248.15 42.99 261.36C69.01 279.39 96.6 265.69 128.54 249.82C144.5 241.89 161.01 233.69 178.05 229.49C184.5 227.9 191.1 226.95 197.48 226.03C209.39 224.31 220.63 222.69 230.02 217.25C240.09 211.42 246.98 201.68 248.91 190.53ZM251.07 12.85L115.4 12.85L147.33 107.09C147.69 107.16 148.05 107.24 148.4 107.33C148.76 107.41 149.11 107.5 149.47 107.6C149.82 107.69 150.17 107.79 150.52 107.9C150.87 108.01 151.22 108.12 151.56 108.24L183.31 44.05L214.97 108.63C215.3 108.5 215.63 108.38 215.96 108.26C216.3 108.14 216.64 108.03 216.97 107.93C217.31 107.82 217.65 107.73 217.99 107.63C218.34 107.54 218.68 107.45 219.02 107.37L251.07 12.85ZM140.93 119.31C129.96 119.31 121.04 128.24 121.04 139.2C121.04 150.17 129.96 159.09 140.93 159.09C151.89 159.09 160.82 150.17 160.82 139.2C160.82 128.24 151.89 119.31 140.93 119.31ZM54.87 119.5C43.91 119.5 34.98 128.43 34.98 139.39C34.98 150.36 43.91 159.28 54.87 159.28C65.84 159.28 74.76 150.36 74.76 139.39C74.76 128.42 65.84 119.5 54.87 119.5ZM246.55 139.2C246.55 128.24 237.62 119.31 226.66 119.31C215.69 119.31 206.77 128.24 206.77 139.2C206.77 150.17 215.69 159.09 226.66 159.09C237.62 159.09 246.55 150.17 246.55 139.2Z" /></svg>