<svg version="1.2" baseProfile="tiny-ps" xmlns="http://www.w3.org/2000/svg" viewBox="0 0 515 515" width="515" height="515"><title>lumen-1-svg</title><style>tspan { white-space:pre }.shp0 { fill: #e54537 } </style><path class="shp0" d="M144.11 142.74C146.25 142.74 148.41 142.29 150.47 141.33L376.26 36.35C383.82 32.83 387.11 23.85 383.59 16.29C380.07 8.72 371.09 5.44 363.53 8.96L137.74 113.95C130.18 117.46 126.9 126.44 130.41 134.01C132.97 139.51 138.42 142.74 144.12 142.74L144.11 142.74ZM363.53 73.14L137.74 178.13C130.18 181.64 126.9 190.62 130.41 198.18C132.97 203.69 138.42 206.92 144.12 206.92C146.25 206.92 148.41 206.47 150.47 205.51L376.26 100.52C383.83 97.01 387.11 88.03 383.59 80.46C380.07 72.9 371.09 69.62 363.53 73.14L363.53 73.14ZM363.53 137.86L137.74 242.84C130.18 246.36 126.9 255.34 130.41 262.9C132.97 268.4 138.42 271.64 144.12 271.64C146.25 271.64 148.41 271.19 150.47 270.23L376.26 165.24C383.83 161.73 387.11 152.75 383.59 145.18C380.07 137.62 371.09 134.34 363.53 137.86L363.53 137.86ZM144.11 78.75C146.25 78.75 148.42 78.29 150.49 77.33L254.57 28.79C262.13 25.27 265.4 16.28 261.88 8.72C258.35 1.16 249.37 -2.1 241.81 1.42L137.72 49.95C130.16 53.48 126.89 62.47 130.42 70.02C132.98 75.52 138.43 78.74 144.11 78.74L144.11 78.75ZM363.47 202.06L283.65 239.58C282.36 240.19 281.17 240.98 280.1 241.92C279.03 242.86 278.09 243.95 277.33 245.16C276.57 246.36 275.98 247.67 275.58 249.03C275.18 250.4 274.98 251.82 274.98 253.25L274.98 328.62L240.1 328.62L240.1 272.36C240.1 264.02 233.34 257.25 225 257.25C216.66 257.25 209.9 264.01 209.9 272.36L209.9 328.62L188.26 328.62C181.83 328.62 176.97 334.44 178.11 340.76L183.21 369.04C183.42 370.22 183.83 371.35 184.44 372.39C185.04 373.43 185.82 374.35 186.74 375.12C187.66 375.89 188.71 376.49 189.84 376.9C190.96 377.31 192.15 377.52 193.35 377.52L246.34 377.52L190.22 387.71C189.24 387.89 188.31 388.25 187.47 388.79C186.64 389.33 185.92 390.02 185.36 390.84C184.79 391.65 184.39 392.57 184.18 393.54C183.97 394.51 183.96 395.51 184.14 396.49C184.29 397.35 184.6 398.18 185.04 398.94C185.48 399.69 186.05 400.37 186.72 400.93C187.39 401.49 188.16 401.94 188.98 402.24C189.81 402.54 190.68 402.69 191.56 402.69C192 402.69 192.46 402.65 192.91 402.57L321.63 379.19C322.1 379.11 322.57 378.98 323.02 378.8C323.47 378.62 323.9 378.41 324.31 378.15C324.72 377.89 325.1 377.59 325.45 377.26C325.8 376.93 326.12 376.56 326.4 376.17C329.07 374.66 331.02 372 331.52 368.78L335.88 340.51C336.85 334.26 332.01 328.62 325.69 328.62L305.18 328.62L305.18 262.84L376.32 229.39C383.87 225.84 387.11 216.85 383.56 209.3C380.01 201.76 371.02 198.51 363.47 202.06L363.47 202.06ZM318.93 402.81L190.22 426.18C189.24 426.36 188.31 426.73 187.48 427.26C186.64 427.8 185.92 428.49 185.36 429.31C184.79 430.12 184.39 431.04 184.18 432.01C183.98 432.98 183.96 433.98 184.13 434.96C184.29 435.82 184.6 436.65 185.04 437.41C185.48 438.16 186.05 438.84 186.72 439.4C187.39 439.96 188.16 440.41 188.98 440.71C189.81 441.01 190.68 441.16 191.56 441.16C192 441.16 192.46 441.12 192.91 441.04L321.63 417.67C322.6 417.49 323.53 417.12 324.37 416.59C325.2 416.05 325.92 415.35 326.49 414.54C327.05 413.72 327.45 412.81 327.66 411.84C327.87 410.87 327.89 409.87 327.71 408.89C326.96 404.79 323.04 402.05 318.93 402.81L318.93 402.81ZM318.93 442.72L190.22 466.09C189.24 466.26 188.31 466.63 187.48 467.17C186.64 467.71 185.92 468.4 185.36 469.22C184.79 470.03 184.39 470.95 184.18 471.92C183.97 472.89 183.96 473.89 184.13 474.87C184.29 475.73 184.6 476.56 185.04 477.31C185.48 478.07 186.05 478.75 186.72 479.31C187.39 479.87 188.16 480.31 188.98 480.61C189.81 480.91 190.68 481.07 191.56 481.07C192 481.07 192.46 481.03 192.91 480.94L321.63 457.57C322.6 457.4 323.53 457.03 324.37 456.49C325.2 455.96 325.92 455.26 326.49 454.45C327.05 453.63 327.45 452.71 327.66 451.74C327.87 450.78 327.89 449.77 327.71 448.8C326.96 444.7 323.04 441.96 318.93 442.72L318.93 442.72ZM303.54 482.98L207.54 499.52C205.58 499.87 203.85 500.99 202.71 502.62C201.57 504.25 201.12 506.26 201.46 508.22C201.8 510.18 202.9 511.93 204.51 513.08C206.13 514.24 208.14 514.71 210.1 514.4L306.1 497.86C307.08 497.69 308.01 497.33 308.85 496.8C309.69 496.27 310.42 495.58 310.99 494.77C311.56 493.96 311.97 493.05 312.18 492.08C312.4 491.11 312.43 490.11 312.26 489.13C311.55 485.03 307.65 482.28 303.54 482.98L303.54 482.98Z" /></svg>