<svg version="1.2" baseProfile="tiny-ps" xmlns="http://www.w3.org/2000/svg" viewBox="0 0 222 222" width="222" height="222"><title>Markdown-mark-svg</title><style>tspan { white-space:pre }.shp0 { fill: #ffffff } .shp1 { fill: none;stroke: #000000;stroke-width: 10 } .shp2 { fill: #000000 } </style><path class="shp0" d="M1.05 40.92L221.05 41.08L220.95 181.08L0.95 180.92L1.05 40.92Z" /><path class="shp1" d="M12 52L210 52L210 170L12 170L12 52Z" /><path class="shp2" d="M37 145L37 77L57 77L77 102L97 77L117 77L117 145L97 145L97 106L77 131L57 106L57 145L37 145ZM162 145L132 112L152 112L152 77L172 77L172 112L192 112L162 145Z" /></svg>