<svg version="1.2" baseProfile="tiny-ps" xmlns="http://www.w3.org/2000/svg" viewBox="0 0 64 64" width="64" height="64"><title>nodejs-icon-svg</title><style>tspan { white-space:pre }.shp0 { fill: #8cc84b } </style><g ><path class="shp0" d="M28.93 1.67C30.49 0.78 32.51 0.77 34.07 1.67C41.9 6.09 49.73 10.51 57.56 14.94C59.03 15.77 60.01 17.4 60 19.1L60 45.72C60.01 47.48 58.93 49.16 57.38 49.97C49.57 54.37 41.77 58.77 33.97 63.17C32.38 64.08 30.31 64.01 28.77 63.03C26.43 61.67 24.09 60.32 21.75 58.97C21.27 58.68 20.73 58.46 20.4 57.99C20.69 57.59 21.23 57.54 21.66 57.37C22.64 57.05 23.53 56.56 24.43 56.07C24.66 55.92 24.94 55.98 25.15 56.12C27.15 57.26 29.14 58.44 31.14 59.58C31.57 59.83 32.01 59.5 32.37 59.29C40.03 54.97 47.69 50.65 55.35 46.33C55.63 46.19 55.79 45.89 55.77 45.58C55.77 36.8 55.77 28.02 55.77 19.24C55.8 18.88 55.6 18.56 55.28 18.42C47.5 14.04 39.73 9.65 31.96 5.27C31.89 5.22 31.82 5.19 31.74 5.16C31.66 5.14 31.58 5.13 31.5 5.13C31.42 5.13 31.34 5.14 31.26 5.16C31.18 5.19 31.11 5.22 31.04 5.27C23.27 9.65 15.5 14.04 7.72 18.42C7.4 18.56 7.19 18.88 7.23 19.24C7.23 28.02 7.23 36.8 7.23 45.58C7.22 45.65 7.23 45.73 7.24 45.8C7.26 45.88 7.29 45.95 7.32 46.01C7.36 46.08 7.41 46.14 7.46 46.19C7.52 46.24 7.58 46.29 7.65 46.32C9.73 47.49 11.8 48.66 13.88 49.83C15.05 50.46 16.49 50.84 17.77 50.36C18.91 49.95 19.71 48.79 19.69 47.58C19.7 38.85 19.68 30.12 19.69 21.4C19.67 21.01 20.03 20.69 20.41 20.72C21.41 20.72 22.41 20.71 23.4 20.73C23.82 20.72 24.1 21.13 24.05 21.53C24.05 30.31 24.06 39.09 24.05 47.88C24.05 50.22 23.09 52.76 20.92 53.91C18.25 55.29 14.96 55 12.32 53.67C10.04 52.53 7.86 51.19 5.62 49.97C4.07 49.17 2.99 47.48 3 45.72L3 19.1C2.98 17.37 4.01 15.7 5.53 14.88C13.33 10.48 21.13 6.07 28.93 1.67Z" /><path class="shp0" d="M35.73 20.11C39.14 19.89 42.78 19.98 45.84 21.65C48.21 22.94 49.53 25.63 49.57 28.27C49.5 28.62 49.13 28.82 48.79 28.79C47.8 28.79 46.82 28.81 45.83 28.79C45.41 28.8 45.17 28.42 45.12 28.05C44.83 26.79 44.14 25.54 42.96 24.93C41.14 24.02 39.03 24.06 37.04 24.08C35.59 24.16 34.03 24.29 32.8 25.14C31.86 25.78 31.58 27.09 31.91 28.14C32.23 28.89 33.1 29.13 33.81 29.36C37.91 30.43 42.26 30.32 46.28 31.74C47.94 32.31 49.57 33.43 50.14 35.17C50.89 37.51 50.56 40.3 48.9 42.18C47.55 43.72 45.59 44.56 43.63 45.02C41.02 45.6 38.32 45.62 35.67 45.36C33.19 45.07 30.6 44.42 28.68 42.72C27.03 41.3 26.23 39.08 26.31 36.93C26.33 36.57 26.69 36.32 27.04 36.35C28.03 36.34 29.03 36.34 30.02 36.35C30.42 36.32 30.71 36.66 30.73 37.04C30.91 38.24 31.37 39.5 32.41 40.21C34.43 41.51 36.97 41.42 39.28 41.46C41.2 41.38 43.35 41.35 44.92 40.08C45.74 39.36 45.99 38.15 45.76 37.11C45.52 36.23 44.6 35.82 43.81 35.56C39.77 34.28 35.37 34.74 31.36 33.29C29.73 32.72 28.16 31.63 27.54 29.96C26.66 27.59 27.06 24.66 28.9 22.85C30.69 21.05 33.28 20.35 35.73 20.11L35.73 20.11Z" /></g></svg>