<svg version="1.2" baseProfile="tiny-ps" xmlns="http://www.w3.org/2000/svg" viewBox="0 0 64 64" width="64" height="64"><title>php-svg</title><style>tspan { white-space:pre }.shp0 { fill: #8993be } .shp1 { fill: #232531 } </style><g ><path class="shp0" d="M32.16 48.43C15.01 48.51 1.12 41.36 1.08 32.44C1.04 23.52 14.86 16.24 32 16.15C49.14 16.07 63.03 23.21 63.08 32.14C63.12 41.06 49.3 48.34 32.16 48.43Z" /><path fill-rule="evenodd" class="shp1" d="M9.83 41.95L13.14 24.74L21 24.7C24.4 24.89 26.11 26.58 26.12 29.56C26.14 34.65 22.13 37.65 18.51 37.45L14.69 37.47L13.87 41.93L9.83 41.95ZM18.07 34.27C19.98 34.05 21.68 33.4 21.87 29.79C21.87 28.52 20.8 27.88 19.32 27.89L16.56 27.91L15.53 34.28L18.07 34.27ZM28.68 20.2L32.72 20.18L31.89 24.65L35.71 24.63C39.11 24.82 40.39 26.51 39.98 28.64L38.53 37.35L34.29 37.37L35.73 29.51C35.94 28.45 35.94 27.81 34.45 27.82L31.27 27.83L29.4 37.4L25.37 37.42L28.68 20.2ZM41.6 24.6L49.45 24.56C52.85 24.76 54.56 26.45 54.57 29.42C54.6 34.51 50.58 37.51 46.97 37.31L43.14 37.33L42.32 41.79L38.28 41.81L41.6 24.6ZM46.53 34.13C48.44 33.91 50.13 33.26 50.33 29.65C50.32 28.38 49.26 27.75 47.77 27.75L45.01 27.77L43.98 34.14L46.53 34.13Z" /></g></svg>