<svg version="1.2" baseProfile="tiny-ps" xmlns="http://www.w3.org/2000/svg" viewBox="0 0 102 102" width="102" height="102"><title>sass-svg</title><style>tspan { white-space:pre }.shp0 { fill: #cc6699 } .shp1 { fill: #ffffff } </style><g ><g ><g ><g ><path class="shp0" d="M51 101C23.35 101 1 78.65 1 51C1 23.35 23.35 1 51 1C78.65 1 101 23.35 101 51C101 78.65 78.65 101 51 101Z" /></g></g></g></g><path fill-rule="evenodd" class="shp1" d="M65.4 48.1C58.1 50.9 52.2 50.4 49.9 49.6C47 48.6 45.3 46.7 44.9 45.6C44.7 45.2 44.3 44.1 45.1 43.7C45.8 43.3 46.2 43.7 46.8 44.4C46.9 44.5 49.2 46.9 54.6 46.3C63.5 45.3 69.3 40.3 71.6 36.3C73 33.9 73.3 31.7 72.5 30C72.1 29.1 71 28.3 69.4 27.7C65.5 26.3 58.1 26.5 49 31C38.7 36.1 33.4 41.4 33.1 46.8C32.9 51.1 36.6 54 40.6 57C42.3 58.4 44.2 59.8 45.6 61.3L45.7 61.4C47.2 60.9 49.1 60.6 51.9 60.6C55.7 60.5 59 61.7 61.2 64C62.9 65.8 63.8 68 63.7 70.2C63.5 73.8 60.3 75.4 59.4 75.6C59.1 75.6 58.3 75.7 58.1 74.9C58 74.3 58.4 74 58.9 73.7C59.5 73.3 60.7 72.4 60.9 70.9C61 70.1 60.8 68.8 59.8 67.5C58.9 66.3 57 64.8 53.1 64.3C51.1 64.1 49.3 64.1 47.6 64.5C48.8 67.7 48.6 72.9 46 76.8C43.4 80.7 39.2 83 34.9 83C33.8 83 32.7 82.9 31.7 82.6C30.7 82.3 29.7 81.3 29.1 80C28.5 78.9 27.8 76.4 29.3 73C31.3 68.7 38.6 64.6 41.3 63.2C40.4 62.4 39.2 61.6 37.9 60.7C33.1 57.3 27 53.2 25.9 47.4C25.4 45.3 26.4 40 32.8 34C39.2 28.1 47.7 24.5 52.2 22.9C59.7 20.2 67.9 20.3 73 23C75.6 24.4 77.3 26.4 77.9 28.8C79.6 35.7 73.8 44.7 65.4 48.1ZM43.7 66.3C42.9 66.7 39.4 68.6 36.9 71.2C34.8 73.3 34.1 75.7 34.3 76.9C34.4 77.3 34.5 77.6 34.8 77.8C35.8 78.4 38.9 77.7 41.2 75.2C42 74.4 42.6 73.5 43 72.6C43 72.4 43.1 72.2 43.2 72C43.3 71.8 43.3 71.6 43.4 71.4C43.9 69.8 44 68.1 43.7 66.3Z" /></svg>